<?xml version="1.0" encoding="utf-8"?>
<!-- Generator: Adobe Illustrator 20.0.0, SVG Export Plug-In . SVG Version: 6.00 Build 0)  -->
<svg version="1.1" id="Layer_1" xmlns="http://www.w3.org/2000/svg" xmlns:xlink="http://www.w3.org/1999/xlink" x="0px" y="0px"
	 viewBox="0 0 71.4 71.4" style="enable-background:new 0 0 71.4 71.4;" xml:space="preserve">
<style type="text/css">
	.st0{fill:#FFFFFF;}
</style>
<rect width="71.4" height="71.4"/>
<g>
	<path class="st0" d="M16.9,26.9c-0.7-0.7-1.1-1.7-1.1-2.8c0-0.1,0-0.2,0.1-0.3c0.1-0.1,0.2-0.1,0.3-0.1h0.8c0.1,0,0.3,0,0.3,0.1
		c0.1,0.1,0.1,0.2,0.1,0.3c0,0.6,0.2,1.2,0.6,1.6c0.4,0.4,1,0.6,1.7,0.6c0.7,0,1.2-0.2,1.6-0.6c0.4-0.4,0.6-0.8,0.6-1.4
		c0-0.7-0.2-1.3-0.6-1.8c-0.4-0.5-0.9-0.9-1.5-1.2s-1.2-0.6-1.8-1c-0.6-0.3-1.1-0.8-1.5-1.4C16.2,18.7,16,18,16,17.2
		c0-1.1,0.4-1.9,1.1-2.7s1.7-1.1,2.7-1.1c1.1,0,2.1,0.4,2.8,1.1c0.7,0.7,1.1,1.5,1.1,2.3c0,0.1,0,0.2-0.1,0.3
		c-0.1,0.1-0.2,0.1-0.3,0.1h-0.8c-0.3,0-0.4-0.1-0.5-0.4c0-0.4-0.3-0.8-0.7-1.2c-0.4-0.4-0.9-0.6-1.5-0.6c-0.6,0-1.1,0.2-1.5,0.6
		C18,16,17.8,16.5,17.8,17c0,0.5,0.2,1,0.6,1.4c0.4,0.4,0.9,0.8,1.5,1.1s1.2,0.6,1.8,1s1.1,0.9,1.5,1.5c0.4,0.6,0.6,1.4,0.6,2.3
		c0,1-0.4,1.9-1.1,2.6c-0.7,0.8-1.7,1.1-2.9,1.1C18.6,28.1,17.6,27.7,16.9,26.9z"/>
</g>
<g>
	<path class="st0" d="M51.7,26.3h0.2l0.5-6.3c0-0.2,0-0.4,0-0.8V14c0-0.1,0-0.2,0.1-0.3c0.1-0.1,0.2-0.1,0.3-0.1h0.7
		c0.1,0,0.3,0,0.3,0.1c0.1,0.1,0.1,0.2,0.1,0.3v5.2c0,0.2,0,0.4,0,0.8l-0.7,7.4c0,0.3-0.2,0.4-0.5,0.4h-1.7c-0.3,0-0.4-0.1-0.5-0.4
		l-0.8-5.1h-0.2L49,27.4c0,0.3-0.2,0.4-0.5,0.4h-1.7c-0.3,0-0.4-0.1-0.5-0.4l-0.7-7.4c0-0.4,0-0.6,0-0.8V14c0-0.1,0-0.2,0.1-0.3
		c0.1-0.1,0.2-0.1,0.3-0.1h0.7c0.1,0,0.3,0,0.3,0.1s0.1,0.2,0.1,0.3v5.1c0,0.4,0,0.6,0,0.8l0.5,6.3h0.2l0.8-5c0-0.3,0.2-0.4,0.5-0.4
		h1.3c0.3,0,0.4,0.1,0.5,0.4L51.7,26.3z"/>
</g>
<g>
	<path class="st0" d="M17.5,52.7c0,0.6,0.2,1.1,0.6,1.5c0.4,0.4,0.9,0.6,1.5,0.6c0.6,0,1.1-0.2,1.6-0.6c0.4-0.4,0.6-0.9,0.6-1.5
		v-9.1H17c-0.1,0-0.2,0-0.3-0.1c-0.1-0.1-0.1-0.2-0.1-0.3v-0.7c0-0.1,0-0.3,0.1-0.3c0.1-0.1,0.2-0.1,0.3-0.1h6
		c0.2,0,0.3,0.1,0.4,0.2c0.1,0.1,0.2,0.3,0.2,0.4v10c0,1.1-0.4,1.9-1.1,2.7c-0.7,0.7-1.7,1.1-2.8,1.1c-1.1,0-2-0.4-2.8-1.1
		c-0.7-0.7-1.1-1.6-1.1-2.6V52c0-0.1,0-0.2,0.1-0.3c0.1-0.1,0.2-0.1,0.3-0.1H17c0.1,0,0.3,0,0.3,0.1c0.1,0.1,0.1,0.2,0.1,0.3V52.7z"
		/>
</g>
<g>
	<path class="st0" d="M49.7,48.6l4.6,7c0.1,0.1,0.1,0.2,0.1,0.3c0,0.2-0.1,0.2-0.3,0.2h-1.1c-0.2,0-0.4-0.1-0.5-0.4l-4.5-7v7
		c0,0.1,0,0.2-0.1,0.3c-0.1,0.1-0.2,0.1-0.3,0.1h-0.8c-0.1,0-0.3,0-0.3-0.1c-0.1-0.1-0.1-0.2-0.1-0.3V42.4c0-0.1,0-0.2,0.1-0.3
		c0.1-0.1,0.2-0.1,0.3-0.1h0.8c0.1,0,0.3,0,0.3,0.1c0.1,0.1,0.1,0.2,0.1,0.3v6.2l4.3-6.2c0.2-0.3,0.4-0.4,0.6-0.4h1.1
		c0.2,0,0.3,0.1,0.3,0.2c0,0.1,0,0.2-0.1,0.3L49.7,48.6z"/>
</g>
</svg>
